<svg xmlns="http://www.w3.org/2000/svg" viewBox="0 0 194 194"><defs><style>.cls-1{fill:#0f1528;}.cls-2{fill:#fff;}.cls-3{fill:#1e67af;}.cls-4{fill:#17457b;}.cls-5{fill:#101528;}.cls-6{fill:#23afe5;}</style></defs><g id="Layer_2" data-name="Layer 2"><g id="Layer_2-2" data-name="Layer 2"><rect class="cls-1" width="194" height="194"/></g><g id="Layer_1-2" data-name="Layer 1"><path class="cls-2" d="M172,187.19H22A15.19,15.19,0,0,1,6.81,172V22A15.19,15.19,0,0,1,22,6.81H172A15.19,15.19,0,0,1,187.19,22V172A15.19,15.19,0,0,1,172,187.19"/><path class="cls-3" d="M65.06,50,85.81,68.69H57.36a20.27,20.27,0,0,1-.2-2.83A19.8,19.8,0,0,1,65.06,50"/><path class="cls-4" d="M141.89,125.31a20.38,20.38,0,0,1,.2,2.83A19.81,19.81,0,0,1,134.15,144h0l-20.76-18.69Z"/><path class="cls-5" d="M141.89,125.31h-28.5L63.49,80.39a19.86,19.86,0,0,1-6.13-11.7H85.81l49.42,44.45a19.77,19.77,0,0,1,6.66,12.17"/><path class="cls-3" d="M134.15,144h0a19.73,19.73,0,0,1-11.87,4H51.91l10.51-22.65h51Z"/><path class="cls-6" d="M142.09,46,131.58,68.69H85.81L65.06,50A19.75,19.75,0,0,1,77,46Z"/></g></g></svg>