<svg xmlns="http://www.w3.org/2000/svg" viewBox="0 0 994.39 166.12"><defs><style>.cls-1{fill:#0f1528;}.cls-2{fill:#1f66af;}.cls-3{fill:#17457b;}.cls-4{fill:#1eafe5;}</style></defs><g id="Layer_2" data-name="Layer 2"><g id="Layer_1-2" data-name="Layer 1"><path class="cls-1" d="M336.37,42.63c-1.32-24-22-42.46-46.07-42.46H206.1V147.46h84.2c24.07,0,44.75-18.43,46.07-42.46a44.87,44.87,0,0,0-10.22-31.19A44.84,44.84,0,0,0,336.37,42.63ZM238.83,32.9h52.6a12.28,12.28,0,1,1,0,24.55h-52.6Zm0,81.83V90.18h52.6a12.28,12.28,0,1,1,0,24.55Z"/><path class="cls-2" d="M19,5.92l30,27H7.89a29.06,29.06,0,0,1-.29-4.09A28.59,28.59,0,0,1,19,5.92Z"/><path class="cls-3" d="M130.05,114.73a29,29,0,0,1,.29,4.09,28.64,28.64,0,0,1-11.47,22.93h0l-30-27Z"/><path class="cls-1" d="M130.05,114.73H88.86L16.74,49.8A28.6,28.6,0,0,1,7.89,32.9H49l71.42,64.24A28.63,28.63,0,0,1,130.05,114.73Z"/><path class="cls-2" d="M118.87,141.74h0a28.56,28.56,0,0,1-17.17,5.71H0l15.19-32.73H88.86Z"/><path class="cls-4" d="M130.34.17,115.15,32.9H49l-30-27A28.44,28.44,0,0,1,36.24.17Z"/><path class="cls-1" d="M464.7,97.14,393.28,32.9h66.14L474.62.17H380.51a28.63,28.63,0,0,0-28.64,28.64,29.06,29.06,0,0,0,.29,4.09A28.64,28.64,0,0,0,361,49.8l72.12,64.93H359.47l-15.19,32.73H446a28.64,28.64,0,0,0,28.64-28.64,29,29,0,0,0-.29-4.09A28.63,28.63,0,0,0,464.7,97.14Z"/><rect class="cls-1" x="148.81" y="0.17" width="32.73" height="147.3"/><path class="cls-1" d="M507,124.37a12.17,12.17,0,0,1,4.52,4.49,12,12,0,0,1,1.66,6.2A12.34,12.34,0,0,1,507,145.8a12,12,0,0,1-6.17,1.66,12.36,12.36,0,0,1-12.4-12.4,12,12,0,0,1,1.66-6.2,12.39,12.39,0,0,1,10.74-6.15A12,12,0,0,1,507,124.37ZM496,126.87a9.36,9.36,0,0,0-4.72,8.19,9.16,9.16,0,0,0,1.27,4.72,9.48,9.48,0,0,0,3.45,3.44,9.43,9.43,0,0,0,9.49,0,9.46,9.46,0,0,0,3.44-3.44,9.41,9.41,0,0,0-8.16-14.16A9.29,9.29,0,0,0,496,126.87ZM502,129a3.88,3.88,0,0,1,2.84,1.14,3.83,3.83,0,0,1,1.14,2.79,3.75,3.75,0,0,1-.58,2,4.43,4.43,0,0,1-1.61,1.48l2.19,4.49h-2.55l-2-4.09h-2.55v4.09h-2.25V129Zm-3.11,5.71h3.06a1.66,1.66,0,0,0,1.23-.53,1.77,1.77,0,0,0,.51-1.25,1.66,1.66,0,0,0-.56-1.28,1.75,1.75,0,0,0-1.18-.51h-3.06Z"/><path class="cls-1" d="M587.14,17.54a17.83,17.83,0,0,1-4.25,11.33,17.59,17.59,0,0,1-13.37,6.21H551.66V56.63h-5.74V0h23.6a17,17,0,0,1,5.9,1.1,16.06,16.06,0,0,1,6.92,4.56A17.63,17.63,0,0,1,587.14,17.54Zm-6,0a12.48,12.48,0,0,0-3.46-8.42,12,12,0,0,0-8.26-3.54H551.66v24h17.78a11.83,11.83,0,0,0,9-4.4A11.65,11.65,0,0,0,581.16,17.54Z"/><path class="cls-1" d="M623.35,56.63V49.79c-3.78,5.82-9.44,8-16.76,8-8.1,0-13.92-5-13.92-12.82,0-5.35,2.2-9,7.47-11.72s13.45-3.3,22.5-4.72c-.08-6.84-4.72-10-11-10-4.49,0-8.66,1-12.43,5.59l-3.78-3.94c4.41-5.27,10.15-7.23,16.91-7.23a17,17,0,0,1,11.09,4c3.94,3.3,5.12,8.49,5.12,13.45V56.63Zm-.56-23.2c-7.07,1.1-12,1.89-14.7,2.52-5.35,1.1-9.6,3.93-9.6,8.49,0,5,3.78,8.18,9,8.18,6.13,0,11-2.44,13.52-7.24C622.72,42.16,622.79,38.93,622.79,33.43Z"/><path class="cls-1" d="M664.08,13.76v5.59a15.37,15.37,0,0,0-6.14-1,12.45,12.45,0,0,0-8.41,3.23c-4,3.78-4.09,8.65-4.09,14.79V56.63h-5.82V14.16h5.19v6.37a15,15,0,0,1,3.54-4,16,16,0,0,1,10-3.54A20.28,20.28,0,0,1,664.08,13.76Z"/><path class="cls-1" d="M684.58,41c0,3.54-.16,5.66.86,7.47a6.2,6.2,0,0,0,5.11,3.31,23.52,23.52,0,0,0,7-.32v5.19a22.33,22.33,0,0,1-9.12.32c-3.77-.63-6.61-2.36-8.18-5.59-1.42-3-1.49-6.13-1.49-10.14V19.11h-9V14.16h9V2.36h5.82v11.8h13v4.95h-13Z"/><path class="cls-1" d="M742.24,36V56.63h-5.82V36.18c0-6.61-.71-12.11-4.95-15.26a12.76,12.76,0,0,0-8.26-2.28A11.14,11.14,0,0,0,716,21.39,12.89,12.89,0,0,0,712,28.71a29.36,29.36,0,0,0-.47,6.06V56.63h-5.82V14.16h5.19v6a14.93,14.93,0,0,1,2-2.52,15.72,15.72,0,0,1,10.62-4.41,16.86,16.86,0,0,1,12,3.31C741.53,20.92,742.32,28.47,742.24,36Z"/><path class="cls-1" d="M760.11,47.51a13.46,13.46,0,0,0,10.94,5,15.44,15.44,0,0,0,14.15-8.18l4.41,2.83c-3.78,7.16-10.54,10.62-18.41,10.62-6.05,0-12-2.36-15.49-6.92s-4.8-10-4.8-15.34c0-5.58,1.26-11.25,4.8-15.73S764.91,13,771.05,13a19.4,19.4,0,0,1,15.33,6.84c3.7,4.72,5,10.86,4.64,17.46H756.89C757.12,41.06,758,44.68,760.11,47.51Zm0-24.31A18.22,18.22,0,0,0,757,31.93h28a17.18,17.18,0,0,0-3.15-8.73,13,13,0,0,0-10.77-4.95A13.17,13.17,0,0,0,760.11,23.2Z"/><path class="cls-1" d="M824.65,13.76v5.59a15.4,15.4,0,0,0-6.14-1,12.45,12.45,0,0,0-8.41,3.23c-4,3.78-4.09,8.65-4.09,14.79V56.63h-5.82V14.16h5.19v6.37a15,15,0,0,1,3.54-4,16,16,0,0,1,10-3.54A20.28,20.28,0,0,1,824.65,13.76Z"/><path class="cls-1" d="M552.45,90.77v6.45h-5.74V90.77Zm0,14v42.48h-5.74V104.77Z"/><path class="cls-1" d="M600.88,126.64v20.61h-5.82V126.8c0-6.61-.71-12.12-4.95-15.26a12.7,12.7,0,0,0-8.26-2.28,11.09,11.09,0,0,0-7.24,2.75,12.86,12.86,0,0,0-3.93,7.31,29.41,29.41,0,0,0-.47,6.06v21.87h-5.82V104.77h5.19v6a15.33,15.33,0,0,1,2-2.52,15.71,15.71,0,0,1,10.62-4.4,16.77,16.77,0,0,1,12,3.3C600.17,111.54,601,119.09,600.88,126.64Z"/><path class="cls-1" d="M674.71,108.15a17.83,17.83,0,0,1-4.25,11.33,17.57,17.57,0,0,1-13.37,6.21H639.24v21.56h-5.75V90.61h23.6a17,17,0,0,1,5.9,1.11,15.88,15.88,0,0,1,6.92,4.56A17.6,17.6,0,0,1,674.71,108.15Zm-6,0a12.48,12.48,0,0,0-3.46-8.41A12,12,0,0,0,657,96.2H639.24v24H657a11.78,11.78,0,0,0,9-4.41A11.63,11.63,0,0,0,668.73,108.15Z"/><path class="cls-1" d="M710.92,147.25V140.4c-3.78,5.82-9.44,8-16.76,8-8.1,0-13.92-5-13.92-12.82,0-5.35,2.21-9.05,7.48-11.72s13.45-3.31,22.49-4.72c-.08-6.85-4.72-10-11-10-4.48,0-8.65.94-12.43,5.58L683,110.83c4.4-5.27,10.14-7.24,16.91-7.24a17.13,17.13,0,0,1,11.09,4c3.93,3.31,5.11,8.5,5.11,13.45v26.2ZM710.37,124c-7.08,1.1-12,1.89-14.71,2.52-5.35,1.1-9.6,3.93-9.6,8.49,0,5,3.78,8.18,9.05,8.18,6.13,0,11-2.43,13.53-7.23C710.29,132.77,710.37,129.55,710.37,124Z"/><path class="cls-1" d="M761.87,104.85l-19.51,50.73c-1.57,4.25-3.46,7.08-5.74,8.73s-4.64,1.81-7.4,1.81l-1.1-.08v-5.58l1.42.16a6.62,6.62,0,0,0,4.32-1c1.66-1.26,2.76-3.77,5.59-11.24L721,104.77h6L742.2,141,756,104.85Z"/><path class="cls-1" d="M825.49,121.13l-.08,26.12h-5.66V121.37c0-4.72-.23-7.55-3.46-10.23a9.2,9.2,0,0,0-6.14-2.36,9.78,9.78,0,0,0-7.7,3.62c-2,2.36-2.28,4.72-2.28,7.47v27.38h-5.75l.08-25.88c0-4.72-.23-7.55-3.46-10.23a9.4,9.4,0,0,0-6.21-2.36,10,10,0,0,0-7.71,3.62c-1.89,2.36-2.2,4.72-2.2,7.47v27.38H769.1V104.77h5.19v4.64a15.1,15.1,0,0,1,21.08-2.59,11.84,11.84,0,0,1,3.3,4l.71-1.1a15.09,15.09,0,0,1,21.32-2.91C825.34,110.67,825.49,114.92,825.49,121.13Z"/><path class="cls-1" d="M843.57,138.12a13.44,13.44,0,0,0,10.93,5A15.45,15.45,0,0,0,868.66,135l4.41,2.83c-3.78,7.16-10.55,10.62-18.41,10.62-6.06,0-12-2.36-15.5-6.93s-4.79-10-4.79-15.33c0-5.59,1.26-11.25,4.79-15.73,3.7-4.57,9.21-6.85,15.34-6.85a19.39,19.39,0,0,1,15.34,6.85c3.7,4.72,4.95,10.85,4.64,17.46H840.34C840.58,131.67,841.45,135.29,843.57,138.12Zm0-24.3a18.3,18.3,0,0,0-3.15,8.73h28a17.08,17.08,0,0,0-3.14-8.73,13,13,0,0,0-10.78-5A13.15,13.15,0,0,0,843.57,113.82Z"/><path class="cls-1" d="M920.14,126.64v20.61h-5.82V126.8c0-6.61-.71-12.12-5-15.26a12.69,12.69,0,0,0-8.26-2.28,11.08,11.08,0,0,0-7.23,2.75,12.8,12.8,0,0,0-3.93,7.31,28.7,28.7,0,0,0-.48,6.06v21.87h-5.82V104.77h5.19v6a15.4,15.4,0,0,1,2-2.52,15.71,15.71,0,0,1,10.62-4.4,16.79,16.79,0,0,1,12,3.3C919.43,111.54,920.22,119.09,920.14,126.64Z"/><path class="cls-1" d="M940.12,131.59c0,3.54-.16,5.67.87,7.48a6.19,6.19,0,0,0,5.11,3.3,22.89,22.89,0,0,0,7-.32v5.2a22.5,22.5,0,0,1-9.12.31c-3.78-.63-6.61-2.36-8.19-5.58-1.41-3-1.49-6.14-1.49-10.15v-22.1h-9v-5h9V93h5.82v11.8h13v5h-13Z"/><path class="cls-1" d="M988.73,117.28a11.81,11.81,0,0,0-5.67-6.77,13.78,13.78,0,0,0-6.68-1.65,15.94,15.94,0,0,0-6.53,1.18c-2,.95-3.7,2.83-3.7,5a4.34,4.34,0,0,0,2,3.93,13.74,13.74,0,0,0,5,2.2c2.2.63,4.88,1.34,8.65,2.36a22.41,22.41,0,0,1,8.18,3.86,10.62,10.62,0,0,1,4.41,8.65,11.48,11.48,0,0,1-5.35,9.52c-3.38,2.2-7.47,2.83-11.64,2.83-5.66,0-10.78-1.5-14.39-5.43-2.76-3.07-3.46-5.9-4.49-9.6l5.59-1.41a15.72,15.72,0,0,0,3,7.31c2.59,2.83,6.6,3.86,10.3,3.86,2.91,0,6.61-.63,8.65-2.05a6,6,0,0,0,2.83-5.11,5.32,5.32,0,0,0-2.44-4.4c-1.49-1.11-3-1.74-6.29-2.68-4-1.18-6.13-1.73-8.81-2.52s-5.5-1.88-7.78-4a9.68,9.68,0,0,1-2.91-7.23c0-4.33,3-8.11,6.92-9.84a19.47,19.47,0,0,1,9-1.65,20.14,20.14,0,0,1,9,2,18.19,18.19,0,0,1,8.73,10.22Z"/></g></g></svg>