<svg xmlns="http://www.w3.org/2000/svg" viewBox="0 0 1165 243.08"><defs><style>.cls-1{fill:#0d1427}.cls-4{fill:#1fb1e6}</style></defs><g id="Warstwa_2" data-name="Warstwa 2"><g id="Warstwa_1-2" data-name="Warstwa 1"><path class="cls-1" d="M311.2 45.51h-81.92v152.88H265v-40.16h46.2c35.16 0 57.89-22.33 57.89-56.87s-22.18-55.85-57.89-55.85zm0 77.87H265v-42h46.2c14.3 0 22.84 7.84 22.84 21-.04 12.95-8.75 21-22.84 21zm409.08-41.99h54.71v117h35.87v-117h54.71V45.51H720.28v35.88zm205 56.79h78.1v-32.46h-78.1V81.39h93.32V45.51H889.61v152.88h129.19v-35.87h-93.52v-24.34zM459.33 43.46c-6.95 0-12.52 3.67-17 11.2l-86.45 143.73h40.84l61.39-104.06 20.54 34.61 4.56 7.67H453.6l-18.34 32.5h67.25l17.39 29.28h42.88L476.37 54.66c-4.52-7.53-10.09-11.2-17.04-11.2zm624.84 119.01V45.51h-35.87v152.88H1165v-35.92h-80.83zm-463.93-56.35l-48.79-61.67h-47.87l77.51 94.62v58.33h36.05v-58.58l77.51-94.37h-45.62l-48.79 61.67z"/><path d="M133.06 148.94a41 41 0 0010.32-24.64 40.5 40.5 0 00-7.53-26.62 37.69 37.69 0 00-2.86-3.5l-38.94 27.36z" fill="#1f66b0"/><path d="M133.06 148.94a41 41 0 0010.32-24.64 40.5 40.5 0 00-7.53-26.62 37.69 37.69 0 00-2.86-3.5l-38.94 27.36z" fill="#2166ad"/><path class="cls-1" d="M94.05 121.54L133 94.18a40.46 40.46 0 00-6.9-6.18L1.17.14A.74.74 0 000 .74V55a.74.74 0 00.32.61l9.43 6.63 84.3 59.27z"/><path class="cls-4" d="M94.05 121.54L.32 187.44a.75.75 0 00-.32.61v54.29a.75.75 0 001.17.61l124.93-87.83a40.66 40.66 0 007-6.18z"/><path class="cls-4" d="M94.05 121.54L.32 187.44a.75.75 0 00-.32.61v54.29a.75.75 0 001.17.61l124.93-87.83a40.66 40.66 0 007-6.18z"/></g></g></svg>